<svg xmlns="http://www.w3.org/2000/svg" viewBox="0 0 300 420">
  <polygon points="120,300 130,400 145,400 150,310 155,400 170,400 180,300" fill="#8a1220"/>
  <rect x="115" y="278" width="70" height="26" fill="#1a1a1a"/>
  <path d="M110,175 L100,285 L200,285 L190,175 Z" fill="#8a1220"/>
  <polygon points="118,150 108,180 125,175" fill="#c9a227"/>
  <polygon points="182,150 192,180 175,175" fill="#c9a227"/>
  <ellipse cx="55" cy="195" rx="38" ry="34" fill="#1a1a1a" stroke="#c9a227" stroke-width="3"/>
  <g transform="translate(21,161) scale(0.31)"><path d="M110,45 C142,90 150,128 110,172 C70,128 78,90 110,45 Z" fill="#c9a227" stroke="none" stroke-width="0" stroke-linecap="round" stroke-linejoin="round"/><path d="M45,110 L85,95 L75,130 Z" fill="#8a1220" stroke="none" stroke-width="0" stroke-linecap="round" stroke-linejoin="round"/><path d="M175,110 L135,95 L145,130 Z" fill="#8a1220" stroke="none" stroke-width="0" stroke-linecap="round" stroke-linejoin="round"/></g>
  <ellipse cx="245" cy="195" rx="38" ry="34" fill="#8a1220" stroke="#c9a227" stroke-width="3"/>
  <rect x="88" y="185" width="26" height="95" rx="10" fill="#8a1220"/>
  <rect x="186" y="185" width="26" height="95" rx="10" fill="#8a1220"/>
  <ellipse cx="150" cy="110" rx="52" ry="58" fill="#1a1a1a"/>
  <path d="M118,105 h26 v14 h-26 z M156,105 h26 v14 h-26 z M144,116 v18 h12 v-18 z" fill="#c9a227"/>
</svg>