<svg xmlns="http://www.w3.org/2000/svg" viewBox="0 0 300 420">
  <!-- Power pack -->
  <rect x="122" y="80" width="56" height="90" rx="4" fill="#1a0000"/>
  <rect x="126" y="84" width="48" height="10" rx="2" fill="#c9a227" opacity="0.3"/>
  <rect x="126" y="118" width="48" height="10" rx="2" fill="#c9a227" opacity="0.3"/>
  <circle cx="138" cy="75" r="7" fill="#1a0000" stroke="#c9a227" stroke-width="1.5"/>
  <circle cx="162" cy="75" r="7" fill="#1a0000" stroke="#c9a227" stroke-width="1.5"/>
  <line x1="134" y1="98" x2="134" y2="114" stroke="#c9a227" stroke-width="1.5" opacity="0.25"/>
  <line x1="150" y1="98" x2="150" y2="114" stroke="#c9a227" stroke-width="1.5" opacity="0.25"/>
  <line x1="166" y1="98" x2="166" y2="114" stroke="#c9a227" stroke-width="1.5" opacity="0.25"/>

  <!-- Gorget -->
  <rect x="126" y="148" width="48" height="22" rx="4" fill="#1a0000"/>

  <!-- Legs -->
  <path d="M118,298 L126,384 L142,396 L144,312 Z" fill="#cc0000"/>
  <path d="M182,298 L174,384 L158,396 L156,312 Z" fill="#cc0000"/>
  <path d="M126,320 L142,320" stroke="#c9a227" stroke-width="1" opacity="0.2"/>
  <path d="M158,320 L174,320" stroke="#c9a227" stroke-width="1" opacity="0.2"/>
  <path d="M126,350 L140,350" stroke="#c9a227" stroke-width="1" opacity="0.2"/>
  <path d="M160,350 L174,350" stroke="#c9a227" stroke-width="1" opacity="0.2"/>

  <!-- Knee pads -->
  <ellipse cx="134" cy="336" rx="11" ry="9" fill="#c9a227" opacity="0.75"/>
  <ellipse cx="166" cy="336" rx="11" ry="9" fill="#c9a227" opacity="0.75"/>

  <!-- Boots -->
  <path d="M120,382 L144,382 L144,400 L118,400 Z" fill="#c9a227"/>
  <path d="M156,382 L180,382 L182,400 L156,400 Z" fill="#c9a227"/>

  <!-- Belt / waist -->
  <rect x="110" y="274" width="80" height="26" fill="#1a0000"/>
  <rect x="128" y="278" width="44" height="8" fill="#c9a227" opacity="0.45"/>
  <path d="M143,286 a7,7 0 1 0 14,0 a7,7 0 1 0 -14,0 Z" fill="#c9a227" opacity="0.6"/>

  <!-- Torso -->
  <path d="M106,168 L96,278 L204,278 L194,168 Z" fill="#cc0000"/>

  <!-- Chest aquila -->
  <path d="M116,212 L128,202 L138,207 L150,194 L162,207 L172,202 L184,212 L172,216 L162,210 L150,222 L138,210 L128,216 Z" fill="#c9a227" opacity="0.7"/>

  <!-- Abdomen ribbing -->
  <line x1="104" y1="236" x2="196" y2="236" stroke="#c9a227" stroke-width="0.8" opacity="0.18"/>
  <line x1="102" y1="248" x2="198" y2="248" stroke="#c9a227" stroke-width="0.8" opacity="0.18"/>
  <line x1="100" y1="260" x2="200" y2="260" stroke="#c9a227" stroke-width="0.8" opacity="0.18"/>

  <!-- Pauldron trim arcs -->
  <path d="M16,192 Q58,220 100,192" fill="none" stroke="#c9a227" stroke-width="2.5" opacity="0.4"/>
  <path d="M200,192 Q242,220 284,192" fill="none" stroke="#c9a227" stroke-width="2.5" opacity="0.4"/>

  <!-- Left shoulder pad (emblem) -->
  <ellipse cx="58" cy="190" rx="42" ry="36" fill="#1a0000" stroke="#c9a227" stroke-width="4"/>
  <g transform="translate(20,155) scale(0.35)"><path d="M85,105 L60,62 L55,72 L42,48 L50,62 L35,45 L52,68 L58,78 L68,90 Z" fill="#e8e8e8" stroke="none" stroke-width="0" stroke-linecap="round" stroke-linejoin="round"/><path d="M135,105 L160,62 L165,72 L178,48 L170,62 L185,45 L168,68 L162,78 L152,90 Z" fill="#e8e8e8" stroke="none" stroke-width="0" stroke-linecap="round" stroke-linejoin="round"/><path d="M88,100 L68,72 L72,80 L58,60 L68,72 L78,88 Z" fill="#c8c8c8" stroke="none" stroke-width="0" stroke-linecap="round" stroke-linejoin="round"/><path d="M132,100 L152,72 L148,80 L162,60 L152,72 L142,88 Z" fill="#c8c8c8" stroke="none" stroke-width="0" stroke-linecap="round" stroke-linejoin="round"/><path d="M110,42 C122,68 138,95 138,115 C138,135 126,155 110,158 C94,155 82,135 82,115 C82,95 98,68 110,42 Z" fill="#cc0000" stroke="none" stroke-width="0" stroke-linecap="round" stroke-linejoin="round"/><path d="M110,48 C104,68 94,90 94,112 C94,130 100,142 110,148 Z" fill="#e82020" stroke="none" stroke-width="0" stroke-linecap="round" stroke-linejoin="round"/><path d="M110,55 C116,72 125,92 125,110 C125,125 120,138 110,142 C100,138 95,125 95,110 C95,92 104,72 110,55 Z" fill="#0a0000" stroke="none" stroke-width="0" stroke-linecap="round" stroke-linejoin="round"/></g>

  <!-- Right shoulder pad -->
  <ellipse cx="242" cy="190" rx="42" ry="36" fill="#cc0000" stroke="#c9a227" stroke-width="4"/>

  <!-- Left arm -->
  <rect x="84" y="192" width="28" height="86" rx="12" fill="#cc0000"/>
  <rect x="86" y="250" width="24" height="10" fill="#1a0000"/>
  <rect x="86" y="268" width="24" height="18" rx="4" fill="#cc0000"/>

  <!-- Right arm -->
  <rect x="188" y="192" width="28" height="86" rx="12" fill="#cc0000"/>
  <rect x="190" y="250" width="24" height="10" fill="#1a0000"/>
  <rect x="190" y="268" width="24" height="18" rx="4" fill="#cc0000"/>

  <!-- Bolter -->
  <rect x="218" y="260" width="48" height="14" rx="3" fill="#2a2a2a"/>
  <rect x="220" y="256" width="10" height="22" rx="2" fill="#333"/>
  <rect x="260" y="262" width="12" height="8" rx="1" fill="#1a1a1a"/>

  <!-- Helmet -->
  <path d="M112,100 Q112,46 150,40 Q188,46 188,100 Q188,134 150,140 Q112,134 112,100 Z" fill="#cc0000"/>

  <!-- Faceplate -->
  <path d="M122,84 L178,84 L182,96 L182,112 L172,118 L128,118 L118,112 L118,96 Z" fill="#c9a227" opacity="0.22"/>

  <!-- T-visor -->
  <rect x="120" y="88" width="24" height="13" fill="#c9a227"/>
  <rect x="156" y="88" width="24" height="13" fill="#c9a227"/>
  <rect x="141" y="97" width="18" height="20" fill="#c9a227"/>

  <!-- Eye lenses -->
  <circle cx="132" cy="95" r="5.5" fill="#ff8a3d" opacity="0.95"/>
  <circle cx="168" cy="95" r="5.5" fill="#ff8a3d" opacity="0.95"/>
  <circle cx="130" cy="93" r="2" fill="#ffd090" opacity="0.7"/>
  <circle cx="166" cy="93" r="2" fill="#ffd090" opacity="0.7"/>

  <!-- Breathing grille -->
  <rect x="136" y="118" width="28" height="14" rx="2" fill="#c9a227" opacity="0.22"/>
  <line x1="142" y1="120" x2="142" y2="130" stroke="#cc0000" stroke-width="2.5" opacity="0.5"/>
  <line x1="150" y1="120" x2="150" y2="130" stroke="#cc0000" stroke-width="2.5" opacity="0.5"/>
  <line x1="158" y1="120" x2="158" y2="130" stroke="#cc0000" stroke-width="2.5" opacity="0.5"/>

  <!-- Antenna -->
  <line x1="185" y1="76" x2="210" y2="48" stroke="#c9a227" stroke-width="3" stroke-linecap="round"/>
  <circle cx="212" cy="46" r="4" fill="#c9a227"/>

  
</svg>