<svg xmlns="http://www.w3.org/2000/svg" viewBox="0 0 300 420">
  <polygon points="120,300 130,400 145,400 150,310 155,400 170,400 180,300" fill="#e0b400"/>
  <rect x="115" y="278" width="70" height="26" fill="#1a1a1a"/>
  <path d="M110,175 L100,285 L200,285 L190,175 Z" fill="#e0b400"/>
  <polygon points="118,150 108,180 125,175" fill="#8a1f1f"/>
  <polygon points="182,150 192,180 175,175" fill="#8a1f1f"/>
  <ellipse cx="55" cy="195" rx="38" ry="34" fill="#1a1a1a" stroke="#8a1f1f" stroke-width="3"/>
  <g transform="translate(21,161) scale(0.31)"><path d="M70,120 h80 v55 a40,40 0 0 1 -80,0 Z" fill="#1a1a1a" stroke="none" stroke-width="0" stroke-linecap="round" stroke-linejoin="round"/><path d="M78,110 h16 v25 h-16 z M100,102 h16 v33 h-16 z M122,102 h16 v33 h-16 z M144,110 h14 v25 h-14 z" fill="#1a1a1a" stroke="none" stroke-width="0" stroke-linecap="round" stroke-linejoin="round"/><path d="M60,140 L78,130 L78,165 L60,168 Z" fill="#1a1a1a" stroke="none" stroke-width="0" stroke-linecap="round" stroke-linejoin="round"/></g>
  <ellipse cx="245" cy="195" rx="38" ry="34" fill="#e0b400" stroke="#8a1f1f" stroke-width="3"/>
  <rect x="88" y="185" width="26" height="95" rx="10" fill="#e0b400"/>
  <rect x="186" y="185" width="26" height="95" rx="10" fill="#e0b400"/>
  <ellipse cx="150" cy="110" rx="52" ry="58" fill="#d1a600"/>
  <path d="M118,105 h26 v14 h-26 z M156,105 h26 v14 h-26 z M144,116 v18 h12 v-18 z" fill="#8a1f1f"/>
</svg>