<svg xmlns="http://www.w3.org/2000/svg" viewBox="0 0 300 420">
  <rect x="112" y="160" width="76" height="30" fill="#050a14"/>
  <path d="M108,150 L96,175 L104,178 L114,158 Z" fill="#050a14"/>
  <path d="M192,150 L204,175 L196,178 Z" fill="#050a14"/>
  <polygon points="118,296 126,392 138,398 143,310 157,310 162,398 174,392 182,296" fill="#0d1a33"/>
  <rect x="112" y="380" width="30" height="16" fill="#b8c0cc"/>
  <rect x="158" y="380" width="30" height="16" fill="#b8c0cc"/>
  <rect x="113" y="274" width="74" height="28" fill="#050a14"/>
  <rect x="128" y="278" width="44" height="8" fill="#b8c0cc" opacity="0.7"/>
  <path d="M108,172 L98,282 L202,282 L192,172 Z" fill="#0d1a33"/>
  <path d="M138,205 L150,195 L162,205 L156,225 L144,225 Z" fill="#b8c0cc" opacity="0.85"/>
  <polygon points="116,148 104,182 124,174" fill="#b8c0cc"/>
  <polygon points="184,148 196,182 176,174" fill="#b8c0cc"/>
  <ellipse cx="53" cy="193" rx="39" ry="35" fill="#050a14" stroke="#b8c0cc" stroke-width="3.5"/>
  <g transform="translate(20,159) scale(0.32)"><path d="M110,58 a44,50 0 1 0 0.1,0 Z" fill="#b8c0cc" stroke="none" stroke-width="0" stroke-linecap="round" stroke-linejoin="round"/><path d="M92,102 a8,8 0 1 0 0.1,0 Z" fill="#050a14" stroke="none" stroke-width="0" stroke-linecap="round" stroke-linejoin="round"/><path d="M128,102 a8,8 0 1 0 0.1,0 Z" fill="#050a14" stroke="none" stroke-width="0" stroke-linecap="round" stroke-linejoin="round"/><path d="M70,128 L150,128 L140,158 L128,132 L118,158 L108,132 L98,158 L88,132 Z" fill="#b8c0cc" stroke="none" stroke-width="0" stroke-linecap="round" stroke-linejoin="round"/><path d="M70,55 L112,108 L92,118 L155,178" fill="none" stroke="#0d1a33" stroke-width="5.46" stroke-linecap="round" stroke-linejoin="round"/></g>
  <ellipse cx="247" cy="193" rx="39" ry="35" fill="#0d1a33" stroke="#b8c0cc" stroke-width="3.5"/>
  <rect x="86" y="183" width="27" height="98" rx="11" fill="#0d1a33"/>
  <rect x="187" y="183" width="27" height="98" rx="11" fill="#0d1a33"/>
  <rect x="86" y="255" width="27" height="10" fill="#050a14"/>
  <rect x="187" y="255" width="27" height="10" fill="#050a14"/>
  <ellipse cx="150" cy="108" rx="53" ry="59" fill="#050a14"/>
  <path d="M114,100 h30 v16 h-30 z M156,100 h30 v16 h-30 z M141,113 v22 h18 v-22 z" fill="#b8c0cc"/>
  <circle cx="129" cy="108" r="4" fill="#ff8a3d" opacity="0.9"/>
  <circle cx="171" cy="108" r="4" fill="#ff8a3d" opacity="0.9"/>
  <line x1="196" y1="85" x2="214" y2="55" stroke="#b8c0cc" stroke-width="3" stroke-linecap="round"/>
  <circle cx="216" cy="52" r="4" fill="#b8c0cc"/>
</svg>