<svg xmlns="http://www.w3.org/2000/svg" viewBox="0 0 300 420">
  <polygon points="120,300 130,400 145,400 150,310 155,400 170,400 180,300" fill="#48545f"/>
  <rect x="115" y="278" width="70" height="26" fill="#1c2733"/>
  <path d="M110,175 L100,285 L200,285 L190,175 Z" fill="#48545f"/>
  <polygon points="118,150 108,180 125,175" fill="#d6d9dc"/>
  <polygon points="182,150 192,180 175,175" fill="#d6d9dc"/>
  <ellipse cx="55" cy="195" rx="38" ry="34" fill="#1c2733" stroke="#d6d9dc" stroke-width="3"/>
  <g transform="translate(21,161) scale(0.31)"><path d="M68,65 L85,95 L60,100 Z" fill="#d6d9dc" stroke="none" stroke-width="0" stroke-linecap="round" stroke-linejoin="round"/><path d="M152,65 L135,95 L160,100 Z" fill="#d6d9dc" stroke="none" stroke-width="0" stroke-linecap="round" stroke-linejoin="round"/><path d="M70,72 L150,72 L165,125 L110,182 L55,125 Z" fill="#d6d9dc" stroke="none" stroke-width="0" stroke-linecap="round" stroke-linejoin="round"/><path d="M93,110 a7,7 0 1 0 0.1,0 Z" fill="#1c2733" stroke="none" stroke-width="0" stroke-linecap="round" stroke-linejoin="round"/><path d="M127,110 a7,7 0 1 0 0.1,0 Z" fill="#1c2733" stroke="none" stroke-width="0" stroke-linecap="round" stroke-linejoin="round"/><path d="M110,130 L98,150 L122,150 Z" fill="#1c2733" stroke="none" stroke-width="0" stroke-linecap="round" stroke-linejoin="round"/></g>
  <ellipse cx="245" cy="195" rx="38" ry="34" fill="#48545f" stroke="#d6d9dc" stroke-width="3"/>
  <rect x="88" y="185" width="26" height="95" rx="10" fill="#48545f"/>
  <rect x="186" y="185" width="26" height="95" rx="10" fill="#48545f"/>
  <ellipse cx="150" cy="110" rx="52" ry="58" fill="#1c2733"/>
  <path d="M118,105 h26 v14 h-26 z M156,105 h26 v14 h-26 z M144,116 v18 h12 v-18 z" fill="#d6d9dc"/>
</svg>