<svg xmlns="http://www.w3.org/2000/svg" viewBox="0 0 300 420">
  <polygon points="120,300 130,400 145,400 150,310 155,400 170,400 180,300" fill="#1c3a6b"/>
  <rect x="115" y="278" width="70" height="26" fill="#0f1f3d"/>
  <path d="M110,175 L100,285 L200,285 L190,175 Z" fill="#1c3a6b"/>
  <polygon points="118,150 108,180 125,175" fill="#d9a916"/>
  <polygon points="182,150 192,180 175,175" fill="#d9a916"/>
  <ellipse cx="55" cy="195" rx="38" ry="34" fill="#0f1f3d" stroke="#d9a916" stroke-width="3"/>
  <g transform="translate(21,161) scale(0.31)"><path d="M110.0,15.0 L127.0,57.7 L165.8,33.1 L154.5,77.7 L200.4,80.6 L165.0,110.0 L200.4,139.4 L154.5,142.3 L165.8,186.9 L127.0,162.3 L110.0,205.0 L93.0,162.3 L54.2,186.9 L65.5,142.3 L19.6,139.4 L55.0,110.0 L19.6,80.6 L65.5,77.7 L54.2,33.1 L93.0,57.7 Z" fill="#d9a916" stroke="none" stroke-width="0" stroke-linecap="round" stroke-linejoin="round"/><path d="M110,110 a26,17 0 1 0 0.1,0 Z" fill="#0f1f3d" stroke="none" stroke-width="0" stroke-linecap="round" stroke-linejoin="round"/><path d="M110,110 a7,7 0 1 0 0.1,0 Z" fill="#d9a916" stroke="none" stroke-width="0" stroke-linecap="round" stroke-linejoin="round"/></g>
  <ellipse cx="245" cy="195" rx="38" ry="34" fill="#1c3a6b" stroke="#d9a916" stroke-width="3"/>
  <rect x="88" y="185" width="26" height="95" rx="10" fill="#1c3a6b"/>
  <rect x="186" y="185" width="26" height="95" rx="10" fill="#1c3a6b"/>
  <ellipse cx="150" cy="110" rx="52" ry="58" fill="#0f1f3d"/>
  <path d="M118,105 h26 v14 h-26 z M156,105 h26 v14 h-26 z M144,116 v18 h12 v-18 z" fill="#d9a916"/>
</svg>